<?xml version="1.0" encoding="utf-8"?>
<!-- Generator: Adobe Illustrator 23.0.5, SVG Export Plug-In . SVG Version: 6.00 Build 0)  -->
<svg version="1.1" xmlns="http://www.w3.org/2000/svg" xmlns:xlink="http://www.w3.org/1999/xlink" x="0px" y="0px"
	 viewBox="0 0 1000 1000" style="enable-background:new 0 0 1000 1000;" xml:space="preserve">
<style type="text/css">
	.st0{display:none;}
	.st1{display:inline;fill:#1E1E1E;}
	.st2{fill:#EFE5C9;}
	.st3{fill:#6FA14E;}
	.st4{fill:#DBA66B;}
	.st5{fill:#F7ECD0;}
	.st6{fill:#FFFFFF;}
	.st7{fill:#D2D3D5;}
</style>
<g id="Capa_2" class="st0">
	<rect x="-5" y="-6" class="st1" width="1007" height="1004"/>
</g>
<g id="Capa_1">
	<path class="st2" d="M503.69,923.78c45.64,0,88.54-17.77,120.81-50.04c30.65-30.65,48.21-70.9,49.9-113.97h-24.36
		c-3.58,77.62-67.85,139.67-146.35,139.67c-78.49,0-142.77-62.05-146.35-139.67h-24.35c1.69,43.07,19.24,83.32,49.9,113.97
		C415.16,906.01,458.06,923.78,503.69,923.78"/>
	<path class="st3" d="M710.78,759.78h-22.69c-1.69,46.73-20.67,90.41-53.91,123.64c-34.86,34.85-81.19,54.05-130.49,54.05
		c-49.29,0-95.63-19.19-130.48-54.05c-33.24-33.24-52.22-76.92-53.91-123.64h-22.69c1.69,52.78,23.04,102.17,60.56,139.68
		c39.14,39.14,91.17,60.69,146.52,60.69c55.35,0,107.39-21.55,146.52-60.69C687.73,861.94,709.08,812.56,710.78,759.78"/>
	<path class="st4" d="M636.36,759.78h-52.17c-20.81,0-41.01,8.2-55.15,23.46c-6.31,6.8-15.32,11.07-25.34,11.07
		c-10.01,0-19.03-4.27-25.33-11.07c-14.15-15.27-34.35-23.46-55.15-23.46h-52.17c3.56,70.08,61.71,125.99,132.66,125.99
		C574.65,885.77,632.79,829.86,636.36,759.78"/>
	<path class="st5" d="M460.88,792.74c5.33-2.53,11.21-2.47,16.24-0.34c-1.52,5.25-5.18,9.86-10.51,12.4
		c-5.32,2.53-11.21,2.46-16.24,0.34C451.9,799.89,455.55,795.27,460.88,792.74"/>
	<path class="st5" d="M544.82,792.74c-5.33-2.53-11.21-2.47-16.24-0.34c1.51,5.25,5.17,9.86,10.51,12.4
		c5.32,2.53,11.2,2.46,16.24,0.34C553.8,799.89,550.14,795.27,544.82,792.74"/>
	<path class="st5" d="M509.52,815.12c-0.08-5.89-2.74-11.14-6.86-14.73c-4.05,3.69-6.57,9.01-6.5,14.9
		c0.08,5.9,2.73,11.15,6.87,14.73C507.07,826.34,509.6,821.02,509.52,815.12"/>
	<path class="st3" d="M578.39,472.11c9.72-9.97,14.04-23.16,13.12-36.03c-12.89-0.6-25.97,4.06-35.69,14.03
		c-9.71,9.97-14.04,23.16-13.12,36.04C555.59,486.74,568.67,482.09,578.39,472.11"/>
	<path class="st6" d="M314.99,556.61v-41.46c0-11.91,6.18-18.97,17.87-18.97c11.68,0,17.86,7.06,17.86,18.97v8.16h-11.46v-8.93
		c0-5.08-2.43-7.18-6.06-7.18c-3.65,0-6.08,2.1-6.08,7.18v43.11c0,5.07,2.43,7.06,6.08,7.06c3.63,0,6.06-1.98,6.06-7.06v-11.8h11.46
		v10.92c0,11.9-6.17,18.96-17.86,18.96C321.17,575.57,314.99,568.51,314.99,556.61"/>
	<path class="st6" d="M357.31,556.16v-40.58c0-12.35,6.5-19.41,18.42-19.41c11.9,0,18.4,7.06,18.4,19.41v40.58
		c0,12.34-6.5,19.4-18.4,19.4C363.8,575.57,357.31,568.51,357.31,556.16 M382.01,556.93v-42.13c0-5.51-2.44-7.6-6.28-7.6
		c-3.86,0-6.29,2.09-6.29,7.6v42.13c0,5.51,2.43,7.61,6.29,7.61C379.57,564.54,382.01,562.44,382.01,556.93"/>
	<path class="st6" d="M402.26,497.28h17.98c12.57,0,17.96,5.84,17.96,17.76v4.73c0,7.94-2.53,13.02-7.92,15.22v0.22
		c6.06,1.88,8.04,7.61,8.04,16.32v13.57c0,3.74,0.12,6.51,1.33,9.37h-12.35c-0.67-1.99-1.11-3.2-1.11-9.49v-14.1
		c0-7.17-2.09-9.49-7.6-9.49h-4.19v33.08h-12.12V497.28z M418.8,530.36c4.52,0,7.27-1.99,7.27-8.15v-5.96
		c0-5.51-1.88-7.93-6.17-7.93h-5.52v22.05H418.8z"/>
	<path class="st6" d="M456.03,497.28h16.42l12.57,77.18H472.9l-2.2-15.32v0.22H456.9l-2.2,15.11h-11.25L456.03,497.28z
		 M469.26,548.88l-5.4-38.14h-0.22l-5.3,38.14H469.26z"/>
	<polygon class="st6" points="488.85,563.66 511.35,508.31 489.94,508.31 489.94,497.29 524.35,497.29 524.35,508.09 501.86,563.44 
		524.35,563.44 524.35,574.47 488.85,574.47 	"/>
	<path class="st6" d="M530.28,556.16v-40.58c0-12.35,6.5-19.41,18.42-19.41c11.89,0,18.4,7.06,18.4,19.41v40.58
		c0,12.34-6.5,19.4-18.4,19.4C536.78,575.57,530.28,568.51,530.28,556.16 M554.98,556.93v-42.13c0-5.51-2.43-7.6-6.27-7.6
		c-3.87,0-6.3,2.09-6.3,7.6v42.13c0,5.51,2.43,7.61,6.3,7.61C552.55,564.54,554.98,562.44,554.98,556.93"/>
	<polygon class="st6" points="575.23,497.28 590.45,497.28 602.25,543.48 602.47,543.48 602.47,497.28 613.27,497.28 613.27,574.47 
		600.81,574.47 586.26,518.12 586.03,518.12 586.03,574.47 575.23,574.47 	"/>
	<polygon class="st6" points="296.61,582.99 333.22,582.99 349.55,699.84 350.01,699.84 366.34,582.99 402.97,582.99 402.97,746.25 
		378.71,746.25 378.71,622.63 378.24,622.63 359.58,746.25 338.13,746.25 319.47,622.63 318.99,622.63 318.99,746.25 296.61,746.25 
			"/>
	<polygon class="st6" points="422.11,582.99 492.07,582.99 492.07,606.31 447.75,606.31 447.75,649.46 482.98,649.46 482.98,672.78 
		447.75,672.78 447.75,722.92 492.07,722.92 492.07,746.25 422.11,746.25 	"/>
	<polygon class="st6" points="506.78,582.99 532.42,582.99 532.42,722.92 613.28,722.92 613.28,746.25 506.78,746.25 	"/>
	<path class="st6" d="M582.13,604.58c-20.44,0-31.61,12.12-31.61,33.31v45.93c0,21.2,11.17,33.31,31.61,33.31
		c20.43,0,31.61-12.11,31.61-33.31v-45.93C613.74,616.7,602.57,604.58,582.13,604.58 M592.93,685.15c0,9.46-4.17,13.06-10.79,13.06
		c-6.63,0-10.79-3.59-10.79-13.06v-48.57c0-9.47,4.16-13.06,10.79-13.06c6.62,0,10.79,3.59,10.79,13.06V685.15z"/>
	<polygon class="st6" points="630.31,582.99 662.51,582.99 687.45,680.71 687.92,680.71 687.92,582.99 710.78,582.99 710.78,746.25 
		684.42,746.25 653.62,627.07 653.18,627.07 653.18,746.25 630.31,746.25 	"/>
	<rect x="549.87" y="582.99" class="st6" width="63.41" height="15.39"/>
	<path class="st6" d="M631.66,512.62h12.61c8.27,0,12.33,4.59,12.33,13v26.61c0,8.41-4.05,13-12.33,13h-12.61V512.62z
		 M644.12,557.71c2.63,0,4.21-1.34,4.21-5.1v-27.36c0-3.76-1.58-5.1-4.21-5.1h-4.21v37.57H644.12z"/>
	<polygon class="st6" points="662.16,512.62 684.71,512.62 684.71,520.14 670.43,520.14 670.43,534.04 681.78,534.04 681.78,541.55 
		670.43,541.55 670.43,557.7 684.71,557.7 684.71,565.23 662.16,565.23 	"/>
	<g>
		<path class="st7" d="M357.63,237.26c0.05,1.26,0.19,3.15,0.41,5.66c0.22,2.52,0.46,5.37,0.74,8.57s0.62,6.64,1.03,10.34
			s0.85,7.34,1.31,10.95s0.97,7.1,1.52,10.46c0.55,3.36,1.15,6.32,1.8,8.86s1.33,4.58,2.01,6.11c0.68,1.53,1.41,2.27,2.17,2.21
			c0.55,0,1.19-0.93,1.93-2.79c0.74-1.86,1.53-4.2,2.38-7.01c0.85-2.82,1.71-5.93,2.58-9.35c0.87-3.42,1.69-6.74,2.46-9.97
			c1.04-4.48,2.15-9.27,3.32-14.36c1.18-5.09,2.53-10.14,4.06-15.18c1.53-5.03,3.29-9.87,5.29-14.52c2-4.65,4.36-8.75,7.1-12.3
			c0.66-0.6,1.27-0.7,1.85-0.29s1.05,1.03,1.44,1.85c0.38,0.82,0.64,1.7,0.78,2.63c0.14,0.93,0.09,1.61-0.12,2.05
			c-1.86,1.53-3.56,3.54-5.09,6.03c-1.53,2.49-2.93,5.24-4.18,8.24c-1.26,3.01-2.38,6.17-3.36,9.47c-0.98,3.31-1.89,6.55-2.71,9.72
			c-0.82,3.17-1.55,6.19-2.17,9.06c-0.63,2.87-1.19,5.37-1.68,7.51c-0.38,1.59-0.83,3.49-1.35,5.7c-0.52,2.21-1.08,4.55-1.68,7.01
			c-0.6,2.46-1.27,4.92-2.01,7.38s-1.52,4.7-2.34,6.73c-0.82,2.02-1.7,3.75-2.63,5.17c-0.93,1.42-1.89,2.32-2.87,2.71
			c-2.19,0.82-4.2,0.67-6.03-0.45c-1.83-1.12-3.47-2.84-4.92-5.17c-1.45-2.32-2.73-5.09-3.85-8.29c-1.12-3.2-2.11-6.45-2.95-9.76
			c-0.85-3.31-1.55-6.49-2.09-9.56c-0.55-3.06-0.98-5.63-1.31-7.71c-0.44,1.86-0.94,4.33-1.52,7.42c-0.57,3.09-1.25,6.43-2.01,10.01
			c-0.77,3.58-1.64,7.19-2.63,10.83c-0.98,3.64-2.13,6.95-3.45,9.93s-2.82,5.43-4.51,7.34c-1.7,1.91-3.61,2.92-5.74,3.04
			c-1.92,0.11-3.62-0.52-5.13-1.89c-1.5-1.37-2.82-3.24-3.94-5.62c-1.12-2.38-2.08-5.13-2.87-8.24c-0.79-3.12-1.46-6.37-2.01-9.76
			c-0.55-3.39-0.98-6.79-1.31-10.21c-0.33-3.42-0.6-6.62-0.82-9.6c-0.22-2.98-0.38-5.59-0.49-7.83c-0.11-2.24-0.22-3.91-0.33-5
			c-0.33-3.12-0.71-6.58-1.15-10.38c-0.44-3.8-1.07-7.42-1.89-10.87s-1.91-6.47-3.28-9.06c-1.37-2.6-3.12-4.25-5.25-4.96
			c-0.27-0.33-0.37-0.7-0.29-1.11s0.27-0.79,0.57-1.15c0.3-0.35,0.66-0.67,1.07-0.94c0.41-0.27,0.83-0.44,1.27-0.49
			c2.74-0.27,5.09,0.26,7.05,1.6c1.97,1.34,3.62,3.17,4.96,5.5c1.34,2.33,2.43,4.98,3.28,7.96c0.85,2.98,1.53,5.92,2.05,8.82
			c0.52,2.9,0.89,5.59,1.11,8.08c0.22,2.49,0.41,4.44,0.57,5.87c0.05,0.93,0.18,2.89,0.37,5.87c0.19,2.98,0.42,6.45,0.7,10.42
			c0.27,3.97,0.62,8.12,1.03,12.47c0.41,4.35,0.92,8.34,1.52,11.98c0.6,3.64,1.3,6.62,2.09,8.94c0.79,2.32,1.71,3.46,2.75,3.4
			c1.2-0.06,2.36-0.88,3.49-2.46c1.12-1.59,2.17-3.68,3.16-6.28c0.98-2.6,1.9-5.59,2.75-8.98c0.85-3.39,1.64-6.92,2.38-10.58
			c0.74-3.66,1.41-7.37,2.01-11.12c0.6-3.75,1.13-7.27,1.6-10.58c0.46-3.31,0.86-6.26,1.19-8.86c0.33-2.6,0.6-4.63,0.82-6.11v-4.1
			c-0.06-1.2,0.4-2.1,1.35-2.71c0.96-0.6,2.02-0.94,3.2-1.03c1.17-0.08,2.31,0.11,3.4,0.57
			C356.68,235.55,357.36,236.28,357.63,237.26z"/>
		<path class="st7" d="M439.42,286.15c-1.26,2.13-2.78,4.66-4.55,7.59c-1.78,2.93-3.68,5.72-5.7,8.37c-2.02,2.65-4.1,4.91-6.23,6.77
			c-2.13,1.86-4.18,2.79-6.15,2.79c-1.75,0-3.04-0.49-3.86-1.48s-1.37-2.27-1.64-3.86c-0.27-1.59-0.32-3.42-0.12-5.5
			c0.19-2.08,0.48-4.21,0.86-6.4c0.38-2.19,0.78-4.35,1.19-6.48s0.68-4.07,0.82-5.82c0.14-1.75,0.08-3.23-0.16-4.43
			c-0.25-1.2-0.83-1.97-1.76-2.3c-0.33-0.11-0.78,0.07-1.35,0.53c-0.57,0.47-1.15,1.04-1.72,1.72c-0.57,0.68-1.12,1.37-1.64,2.05
			c-0.52,0.68-0.86,1.19-1.03,1.52c-0.93,1.48-1.8,3.08-2.63,4.8s-1.55,3.45-2.17,5.17c-0.63,1.72-1.15,3.38-1.56,4.96
			c-0.41,1.59-0.62,2.95-0.62,4.1c-0.06,0.66-0.12,1.42-0.21,2.3c-0.08,0.88-0.1,1.76-0.04,2.67c0.05,0.9,0.21,1.74,0.45,2.5
			c0.25,0.77,0.67,1.39,1.27,1.89c-1.09,0.98-2.3,1.61-3.61,1.89c-1.31,0.27-2.56,0.19-3.73-0.25c-1.18-0.44-2.16-1.22-2.95-2.34
			c-0.79-1.12-1.19-2.61-1.19-4.47c0-2.02,0.01-4.46,0.04-7.3c0.03-2.84,0.07-5.84,0.12-8.98c0.05-3.14,0.15-6.36,0.29-9.64
			c0.14-3.28,0.32-6.37,0.53-9.27c0.33-3.94,0.74-7.9,1.23-11.89c0.49-3.99,1.15-7.85,1.97-11.57c0.82-3.72,1.82-7.19,2.99-10.42
			c1.17-3.23,2.63-6.04,4.35-8.45c1.72-2.41,3.75-4.31,6.07-5.7c2.32-1.39,5.02-2.09,8.08-2.09c2.02,0,3.81,0.38,5.37,1.15
			c1.56,0.77,2.86,1.79,3.9,3.08c1.04,1.29,1.82,2.78,2.34,4.47c0.52,1.7,0.78,3.45,0.78,5.25c0,3.99-0.83,7.79-2.5,11.4
			c-1.67,3.61-3.81,6.95-6.44,10.01c-2.63,3.06-5.55,5.81-8.78,8.24c-3.23,2.43-6.43,4.47-9.6,6.11c-0.27,2.95-0.45,6.17-0.53,9.64
			c-0.08,3.47-0.21,6.85-0.37,10.13c0.71-1.53,1.44-3.04,2.17-4.51s1.49-2.9,2.26-4.27c0.66-1.04,1.39-2.13,2.21-3.28
			s1.74-2.21,2.75-3.2c1.01-0.98,2.09-1.79,3.24-2.42c1.15-0.63,2.35-0.94,3.61-0.94c2.41,0,4.06,0.88,4.96,2.63
			c0.9,1.75,1.35,3.92,1.35,6.52c0,2.6-0.26,5.43-0.78,8.49c-0.52,3.06-1.03,5.89-1.52,8.49c-0.49,2.6-0.79,4.77-0.9,6.52
			c-0.11,1.75,0.27,2.63,1.15,2.63c0.6,0,1.33-0.37,2.17-1.11c0.85-0.74,1.75-1.71,2.71-2.91c0.96-1.2,1.95-2.57,2.99-4.1
			c1.04-1.53,2.05-3.06,3.04-4.59c0.98-1.53,1.9-3.04,2.75-4.51s1.57-2.73,2.17-3.77c0.38-0.66,0.88-1.05,1.48-1.19
			c0.6-0.14,1.15-0.08,1.64,0.16s0.83,0.63,1.03,1.15C439.9,284.91,439.8,285.49,439.42,286.15z M400.29,264
			c2.84-1.69,5.63-3.62,8.37-5.78c2.73-2.16,5.15-4.52,7.26-7.1c2.1-2.57,3.8-5.37,5.09-8.41c1.28-3.03,1.93-6.27,1.93-9.72
			c0-0.93-0.1-1.95-0.29-3.08c-0.19-1.12-0.52-2.17-0.98-3.16c-0.47-0.98-1.08-1.8-1.85-2.46c-0.77-0.66-1.72-0.98-2.87-0.98
			c-2.35,0-4.39,0.83-6.11,2.5c-1.72,1.67-3.19,3.81-4.39,6.44c-1.2,2.63-2.19,5.54-2.95,8.74c-0.77,3.2-1.37,6.3-1.8,9.31
			c-0.44,3.01-0.77,5.74-0.98,8.2C400.48,260.97,400.34,262.8,400.29,264z"/>
		<path class="st7" d="M470.43,270.81c-0.77,0.55-1.49,1.53-2.17,2.95c-0.68,1.42-1.29,3.08-1.8,4.96
			c-0.52,1.89-0.98,3.92-1.39,6.11c-0.41,2.19-0.74,4.31-0.98,6.36s-0.42,3.97-0.53,5.74c-0.11,1.78-0.11,3.19,0,4.22
			c0.16,1.86,0.52,3.1,1.07,3.73c0.55,0.63,1.19,0.86,1.93,0.7s1.54-0.62,2.42-1.35c0.87-0.74,1.75-1.54,2.63-2.42
			c1.2-1.2,2.41-2.67,3.61-4.39c1.2-1.72,2.32-3.45,3.36-5.17s1.96-3.32,2.75-4.8s1.41-2.54,1.85-3.2c0.38-0.66,0.88-1.05,1.48-1.19
			c0.6-0.14,1.15-0.08,1.64,0.16s0.83,0.63,1.03,1.15c0.19,0.52,0.1,1.11-0.29,1.76c-0.71,1.26-1.49,2.67-2.34,4.22
			s-1.78,3.19-2.79,4.88c-1.01,1.7-2.11,3.39-3.28,5.09c-1.18,1.7-2.42,3.28-3.73,4.76c-0.98,1.09-2.09,2.13-3.32,3.12
			s-2.52,1.78-3.86,2.38c-1.34,0.6-2.71,0.94-4.1,1.03s-2.75-0.21-4.06-0.86c-1.31-0.71-2.34-1.72-3.08-3.04s-1.27-2.75-1.6-4.31
			s-0.52-3.13-0.57-4.72c-0.06-1.59-0.06-3.04,0-4.35c-0.82,1.48-1.8,3.12-2.95,4.92s-2.43,3.42-3.86,4.84
			c-1.42,1.42-2.97,2.5-4.63,3.24c-1.67,0.74-3.49,0.78-5.46,0.12c-1.42-0.49-2.51-1.3-3.28-2.42c-0.77-1.12-1.27-2.43-1.52-3.94
			c-0.25-1.5-0.31-3.13-0.21-4.88c0.11-1.75,0.37-3.49,0.78-5.21s0.89-3.36,1.44-4.92c0.55-1.56,1.09-2.91,1.64-4.06
			c1.2-2.3,2.6-4.38,4.18-6.23c1.58-1.86,3.29-3.31,5.13-4.35c1.83-1.04,3.76-1.57,5.78-1.6c2.02-0.03,4.05,0.62,6.07,1.93
			c0.66-1.97,1.6-3.39,2.83-4.27c1.23-0.87,2.5-1.3,3.81-1.27c1.31,0.03,2.56,0.45,3.73,1.27
			C468.94,268.35,469.82,269.44,470.43,270.81z M456.32,275.57c-0.82-0.66-1.74-0.77-2.75-0.33c-1.01,0.44-2.02,1.16-3.04,2.17
			c-1.01,1.01-1.98,2.23-2.91,3.65c-0.93,1.42-1.72,2.79-2.38,4.1s-1.31,2.91-1.97,4.8s-1.19,3.72-1.6,5.5
			c-0.41,1.78-0.64,3.36-0.7,4.76c-0.06,1.39,0.16,2.28,0.66,2.67c0.66,0.49,1.5,0.22,2.54-0.82c1.04-1.04,2.1-2.49,3.2-4.35
			c1.09-1.86,2.2-3.99,3.32-6.4c1.12-2.41,2.1-4.7,2.95-6.89c0.85-2.19,1.52-4.1,2.01-5.74S456.37,276.01,456.32,275.57z"/>
		<path class="st7" d="M523.99,233.98c0.98-0.55,1.89-0.56,2.71-0.04c0.82,0.52,1.44,1.26,1.85,2.21c0.41,0.96,0.57,2.02,0.49,3.2
			c-0.08,1.18-0.53,2.15-1.35,2.91c-0.98,0.98-2.21,1.7-3.69,2.13c-1.48,0.44-3.08,0.73-4.8,0.86c-1.72,0.14-3.51,0.12-5.37-0.04
			c-1.86-0.16-3.67-0.4-5.41-0.7c-1.75-0.3-3.4-0.62-4.96-0.94s-2.89-0.6-3.98-0.82c-0.66,3.01-1.44,6.7-2.34,11.07
			c-0.9,4.38-1.75,9.02-2.54,13.95c-0.79,4.92-1.42,9.94-1.89,15.05c-0.47,5.11-0.62,9.88-0.45,14.31c0.11,2.63,0.46,4.83,1.07,6.6
			c0.6,1.78,1.52,2.86,2.75,3.24c1.23,0.38,2.8-0.07,4.72-1.35c1.91-1.29,4.24-3.68,6.97-7.18c0.98-1.26,1.95-2.61,2.91-4.06
			c0.96-1.45,1.82-2.83,2.58-4.14c0.76-1.31,1.45-2.5,2.05-3.57c0.6-1.07,1.07-1.87,1.39-2.42c0.38-0.66,0.87-1.05,1.48-1.19
			c0.6-0.14,1.15-0.08,1.64,0.16s0.83,0.63,1.03,1.15c0.19,0.52,0.09,1.11-0.29,1.76c-1.09,1.92-2.37,4.18-3.81,6.81
			c-1.45,2.63-3.08,5.22-4.88,7.79c-1.75,2.52-3.67,4.72-5.74,6.6c-2.08,1.89-4.17,3.36-6.28,4.43c-2.11,1.07-4.16,1.65-6.15,1.76
			c-2,0.11-3.8-0.41-5.41-1.56c-1.61-1.15-2.94-2.97-3.98-5.46c-1.04-2.49-1.64-5.75-1.8-9.8c-0.22-4.65-0.11-9.53,0.33-14.64
			c0.44-5.11,1.04-10.17,1.8-15.18c0.77-5,1.64-9.79,2.63-14.36c0.98-4.57,1.89-8.6,2.71-12.1c-1.42-0.38-3.25-0.79-5.5-1.23
			c-2.24-0.44-4.51-0.67-6.81-0.7c-2.3-0.03-4.44,0.26-6.44,0.86c-2,0.6-3.46,1.7-4.39,3.28c-0.98,0.55-1.87,0.55-2.67,0
			c-0.79-0.55-1.39-1.33-1.8-2.34c-0.41-1.01-0.55-2.1-0.41-3.28c0.14-1.18,0.62-2.15,1.44-2.91c1.15-1.04,2.53-1.78,4.14-2.21
			c1.61-0.44,3.34-0.67,5.17-0.7c1.83-0.03,3.69,0.1,5.58,0.37c1.89,0.27,3.68,0.59,5.37,0.94c1.69,0.36,3.25,0.73,4.68,1.11
			c1.42,0.38,2.54,0.68,3.36,0.9c0.22-0.87,0.44-1.74,0.66-2.58c0.22-0.85,0.45-1.67,0.7-2.46c0.25-0.79,0.56-1.56,0.94-2.3
			c0.38-0.74,0.87-1.41,1.48-2.01c0.87-0.87,1.85-1.44,2.91-1.68s2.12-0.23,3.16,0.04c1.04,0.27,1.98,0.79,2.83,1.56
			c0.85,0.77,1.49,1.7,1.93,2.79c-0.82,0.44-1.52,1.04-2.09,1.8c-0.57,0.77-1.07,1.59-1.48,2.46c-0.41,0.88-0.73,1.74-0.94,2.58
			c-0.22,0.85-0.41,1.55-0.57,2.09c1.53,0.38,3.4,0.75,5.62,1.11c2.21,0.36,4.46,0.52,6.73,0.49c2.27-0.03,4.36-0.37,6.28-1.03
			C521.72,236.77,523.12,235.62,523.99,233.98z"/>
		<path class="st7" d="M525.47,281.06c0.44,1.2,0.94,2.53,1.52,3.98c0.57,1.45,1.15,2.93,1.72,4.43c0.57,1.5,1.09,2.97,1.56,4.39
			c0.46,1.42,0.83,2.71,1.11,3.86c1.2-0.49,2.39-1.19,3.57-2.09c1.17-0.9,2.31-1.95,3.4-3.16c1.09-1.2,2.13-2.51,3.12-3.94
			c0.98-1.42,1.91-2.84,2.79-4.27c0.49-0.66,1.04-1.04,1.64-1.15c0.6-0.11,1.12-0.04,1.56,0.21c0.44,0.25,0.74,0.64,0.9,1.19
			c0.16,0.55,0.08,1.09-0.25,1.64c-2.35,3.94-4.81,7.22-7.38,9.84c-2.57,2.63-5.5,4.65-8.78,6.07c0.22,3.06-0.07,5.82-0.86,8.29
			c-0.79,2.46-1.9,4.54-3.32,6.23c-1.09,1.31-2.42,2.47-3.98,3.49c-1.56,1.01-3.2,1.76-4.92,2.26s-3.43,0.66-5.13,0.49
			c-1.69-0.16-3.23-0.82-4.59-1.97c-1.42-1.2-2.16-2.86-2.21-4.96c-0.05-2.11,0.79-4.22,2.54-6.36c1.75-2.08,3.64-3.71,5.66-4.88
			s4.18-2.2,6.48-3.08c-0.27-1.48-0.64-2.94-1.11-4.39c-0.46-1.45-0.96-2.91-1.48-4.39c-0.52-1.48-1.01-2.95-1.48-4.43
			c-0.46-1.48-0.81-2.95-1.03-4.43c-0.22-1.53-0.3-3.29-0.25-5.29c0.05-2,0.37-3.9,0.94-5.7s1.45-3.35,2.63-4.63
			c1.18-1.28,2.77-2.01,4.8-2.17c2.19-0.11,3.76,0.44,4.72,1.64c0.96,1.2,1.42,2.64,1.39,4.31c-0.03,1.67-0.51,3.36-1.44,5.09
			C528.39,278.89,527.11,280.19,525.47,281.06z M515.13,317.98c1.09-0.33,2.06-0.9,2.91-1.72c0.85-0.82,1.56-1.79,2.13-2.91
			c0.57-1.12,1.01-2.33,1.31-3.61c0.3-1.29,0.48-2.53,0.53-3.73c-3.01,1.2-5.69,3.01-8.04,5.41c-1.09,1.09-1.79,2.09-2.09,2.99
			c-0.3,0.9-0.34,1.65-0.12,2.26c0.22,0.6,0.63,1.03,1.23,1.27C513.6,318.18,514.31,318.2,515.13,317.98z M523.5,275.81
			c0.6-0.49,1.12-1.05,1.56-1.68c0.44-0.63,0.76-1.19,0.98-1.68c0.16-0.44,0.19-0.81,0.08-1.11c-0.11-0.3-0.29-0.5-0.53-0.62
			c-0.25-0.11-0.53-0.09-0.86,0.04c-0.33,0.14-0.6,0.4-0.82,0.78c-0.38,0.6-0.6,1.33-0.66,2.17
			C523.2,274.57,523.28,275.27,523.5,275.81z"/>
		<path class="st7" d="M594.78,228.48c-0.55,5.52-1.19,10.95-1.93,16.28c-0.74,5.33-1.38,10.73-1.93,16.2
			c1.09,0.16,2.46,0.42,4.1,0.78c1.64,0.36,3.01,0.78,4.1,1.27c0.55,0.11,0.92,0.59,1.11,1.44c0.19,0.85,0.21,1.75,0.04,2.71
			c-0.16,0.96-0.49,1.82-0.98,2.58c-0.49,0.77-1.18,1.12-2.05,1.07c-0.16-0.38-0.51-0.74-1.03-1.07s-1.12-0.62-1.8-0.86
			s-1.39-0.45-2.13-0.62s-1.38-0.27-1.93-0.33c-0.27,4.05-0.36,8.01-0.25,11.89c0.11,3.88,0.6,7.63,1.48,11.24s2.21,7.03,4.02,10.25
			s4.27,6.18,7.38,8.86c-4.21,1.59-7.78,2.01-10.71,1.27s-5.33-2.21-7.22-4.43c-1.89-2.21-3.32-5.02-4.31-8.41
			c-0.98-3.39-1.67-6.96-2.05-10.71c-0.38-3.75-0.52-7.48-0.41-11.2c0.11-3.72,0.3-7.05,0.57-10.01c-3.12-0.22-5.99-0.33-8.61-0.33
			s-5.41,0.25-8.37,0.74c-0.77,1.92-1.64,4.1-2.63,6.56s-2.04,5.04-3.16,7.75c-1.12,2.71-2.28,5.44-3.49,8.2
			c-1.2,2.76-2.41,5.37-3.61,7.83c-1.2,2.46-2.39,4.68-3.57,6.64c-1.18,1.97-2.28,3.53-3.32,4.68c-0.44,0.49-1.09,1.03-1.97,1.6
			c-0.87,0.57-1.79,0.94-2.75,1.11c-0.96,0.16-1.83-0.04-2.63-0.62c-0.79-0.57-1.33-1.79-1.6-3.65c1.92-0.82,3.88-2.65,5.91-5.5
			c2.02-2.84,3.99-6.18,5.91-10.01c1.91-3.83,3.73-7.83,5.46-12.02c1.72-4.18,3.27-8.05,4.63-11.61c-4.1,1.15-7.59,2.6-10.46,4.35
			c-2.87,1.75-4.69,3.58-5.46,5.5c-1.04-0.55-1.86-1.3-2.46-2.26c-0.6-0.96-0.97-1.97-1.11-3.04c-0.14-1.07-0.07-2.13,0.21-3.2
			c0.27-1.07,0.79-2.01,1.56-2.83c1.31-1.2,2.78-2.23,4.39-3.08c1.61-0.85,3.32-1.54,5.13-2.09c1.8-0.55,3.66-0.97,5.58-1.27
			c1.91-0.3,3.86-0.5,5.82-0.62c0.6-1.48,1.37-3.53,2.3-6.15c0.93-2.63,2.01-5.47,3.24-8.53c1.23-3.06,2.63-6.17,4.18-9.31
			c1.56-3.14,3.25-5.96,5.09-8.45c1.83-2.49,3.8-4.5,5.91-6.03c2.1-1.53,4.33-2.21,6.69-2.05c1.48,0.11,2.8,0.47,3.98,1.07
			c1.18,0.6,2.16,1.34,2.95,2.21c0.79,0.88,1.38,1.86,1.76,2.95C594.75,226.38,594.89,227.45,594.78,228.48z M584.28,229.22
			c0.16-0.98,0.19-1.65,0.08-2.01c-0.11-0.35-0.38-0.59-0.82-0.7c-1.26-0.16-2.54,0.36-3.86,1.56c-1.31,1.2-2.6,2.82-3.86,4.84
			c-1.26,2.02-2.46,4.31-3.61,6.85c-1.15,2.54-2.2,5.07-3.16,7.59c-0.96,2.52-1.8,4.84-2.54,6.97s-1.3,3.8-1.68,5
			c1.53-0.05,3.09-0.08,4.68-0.08c1.58,0,3.05,0.03,4.39,0.08c1.34,0.06,2.51,0.12,3.53,0.21c1.01,0.08,1.76,0.15,2.26,0.21
			c0.71-5.91,1.48-11.29,2.3-16.16C582.81,238.71,583.57,233.93,584.28,229.22z"/>
		<path class="st7" d="M624.89,275.81c-1.26-0.05-2.49,0.77-3.69,2.46c-1.2,1.7-2.21,3.86-3.04,6.48c-0.33,2.35-0.63,4.79-0.9,7.3
			c-0.27,2.52-0.53,4.96-0.78,7.34s-0.48,4.65-0.7,6.81c-0.22,2.16-0.38,4.03-0.49,5.62c2.79,2.24,5.56,4.72,8.33,7.42
			c2.76,2.71,5.18,5.62,7.26,8.74c2.08,3.12,3.62,6.44,4.63,9.97c1.01,3.53,1.13,7.26,0.37,11.2c-0.6,2.9-1.7,5.26-3.28,7.1
			c-1.59,1.83-3.43,3.09-5.54,3.77c-2.11,0.68-4.33,0.78-6.69,0.29c-2.35-0.49-4.57-1.59-6.64-3.28c-2.9-2.41-5.04-5.43-6.44-9.06
			c-1.39-3.64-2.3-7.49-2.71-11.57c-0.41-4.07-0.5-8.12-0.29-12.14c0.22-4.02,0.46-7.62,0.74-10.79c0.33-3.61,0.7-7.34,1.11-11.2
			s0.75-7.71,1.03-11.57c0.27-3.86,0.4-7.61,0.37-11.28c-0.03-3.66-0.29-7.05-0.78-10.17c0.77-1.15,1.74-2.01,2.91-2.58
			c1.18-0.57,2.37-0.79,3.57-0.66c1.2,0.14,2.32,0.63,3.36,1.48c1.04,0.85,1.8,2.12,2.3,3.81c0,0.11,0,0.38,0,0.82
			c0,0.44,0,0.9,0,1.39s0,0.96,0,1.39c0,0.44,0,0.74,0,0.9c1.58-1.97,3.21-3.35,4.88-4.14c1.67-0.79,3.29-1.13,4.88-1.03
			c2.51,0.27,4.62,1.16,6.32,2.67c1.69,1.5,3.01,3.38,3.94,5.62c0.93,2.24,1.5,4.69,1.72,7.34c0.22,2.65,0.14,5.24-0.25,7.75
			c1.2-0.33,2.45-0.79,3.73-1.39c1.28-0.6,2.53-1.31,3.73-2.13c1.2-0.82,2.31-1.75,3.32-2.79c1.01-1.04,1.85-2.19,2.5-3.45
			c0.22-0.55,0.6-0.87,1.15-0.98c0.55-0.11,1.07-0.05,1.56,0.16c0.49,0.22,0.88,0.56,1.15,1.03c0.27,0.47,0.27,1.03,0,1.68
			c-0.98,1.64-2.2,3.13-3.65,4.47c-1.45,1.34-2.99,2.5-4.63,3.49c-1.64,0.98-3.3,1.8-4.96,2.46c-1.67,0.66-3.24,1.15-4.72,1.48
			c-0.93,3.12-2.43,5.81-4.51,8.08c-2.08,2.27-4.65,3.81-7.71,4.63c-2.24,0.6-4.18,0.55-5.82-0.16c-1.64-0.71-2.79-1.72-3.45-3.04
			s-0.74-2.74-0.25-4.27s1.69-2.82,3.61-3.86c1.58-0.82,3.17-1.49,4.76-2.01c1.58-0.52,3.17-0.97,4.76-1.35
			c0.11-1.15,0.19-2.83,0.25-5.04c0.05-2.21-0.1-4.43-0.45-6.64c-0.36-2.21-0.98-4.17-1.89-5.86
			C627.96,276.83,626.64,275.92,624.89,275.81z M614.72,316.34c0,1.2-0.06,2.73-0.16,4.59c-0.11,1.86-0.22,3.88-0.33,6.07
			c-0.11,2.19-0.18,4.47-0.21,6.85c-0.03,2.38,0.08,4.73,0.33,7.05c0.25,2.32,0.67,4.52,1.27,6.6c0.6,2.08,1.45,3.88,2.54,5.41
			c1.31,1.86,2.67,3.01,4.06,3.45c1.39,0.44,2.71,0.37,3.94-0.21s2.31-1.56,3.24-2.95c0.93-1.39,1.58-2.97,1.97-4.72
			c0.71-3.45,0.7-6.64-0.04-9.6s-1.94-5.74-3.61-8.37c-1.67-2.63-3.67-5.11-5.99-7.46C619.4,320.71,617.07,318.47,614.72,316.34z
			 M623.25,302.31c-0.71,0.44-1.11,0.97-1.19,1.6s0.03,1.2,0.33,1.72c0.3,0.52,0.76,0.92,1.39,1.19c0.63,0.27,1.33,0.25,2.09-0.08
			c1.2-0.49,2.15-1.35,2.83-2.58c0.68-1.23,1.19-2.64,1.52-4.22c-1.26,0.27-2.48,0.59-3.65,0.94
			C625.39,301.23,624.29,301.71,623.25,302.31z"/>
		<path class="st7" d="M670.91,275.81c-1.26-0.05-2.49,0.77-3.69,2.46c-1.2,1.7-2.21,3.86-3.04,6.48c-0.33,2.35-0.63,4.79-0.9,7.3
			c-0.27,2.52-0.53,4.96-0.78,7.34s-0.48,4.65-0.7,6.81c-0.22,2.16-0.38,4.03-0.49,5.62c2.79,2.24,5.56,4.72,8.33,7.42
			c2.76,2.71,5.18,5.62,7.26,8.74c2.08,3.12,3.62,6.44,4.63,9.97c1.01,3.53,1.13,7.26,0.37,11.2c-0.6,2.9-1.7,5.26-3.28,7.1
			c-1.59,1.83-3.43,3.09-5.54,3.77c-2.11,0.68-4.33,0.78-6.69,0.29c-2.35-0.49-4.57-1.59-6.64-3.28c-2.9-2.41-5.04-5.43-6.44-9.06
			c-1.39-3.64-2.3-7.49-2.71-11.57c-0.41-4.07-0.5-8.12-0.29-12.14c0.22-4.02,0.46-7.62,0.74-10.79c0.33-3.61,0.7-7.34,1.11-11.2
			s0.75-7.71,1.03-11.57c0.27-3.86,0.4-7.61,0.37-11.28c-0.03-3.66-0.29-7.05-0.78-10.17c0.77-1.15,1.74-2.01,2.91-2.58
			c1.18-0.57,2.37-0.79,3.57-0.66c1.2,0.14,2.32,0.63,3.36,1.48c1.04,0.85,1.8,2.12,2.3,3.81c0,0.11,0,0.38,0,0.82
			c0,0.44,0,0.9,0,1.39s0,0.96,0,1.39c0,0.44,0,0.74,0,0.9c1.58-1.97,3.21-3.35,4.88-4.14c1.67-0.79,3.29-1.13,4.88-1.03
			c2.51,0.27,4.62,1.16,6.32,2.67c1.69,1.5,3.01,3.38,3.94,5.62c0.93,2.24,1.5,4.69,1.72,7.34c0.22,2.65,0.14,5.24-0.25,7.75
			c1.2-0.33,2.45-0.79,3.73-1.39c1.28-0.6,2.53-1.31,3.73-2.13c1.2-0.82,2.31-1.75,3.32-2.79c1.01-1.04,1.85-2.19,2.5-3.45
			c0.22-0.55,0.6-0.87,1.15-0.98c0.55-0.11,1.07-0.05,1.56,0.16c0.49,0.22,0.88,0.56,1.15,1.03c0.27,0.47,0.27,1.03,0,1.68
			c-0.98,1.64-2.2,3.13-3.65,4.47c-1.45,1.34-2.99,2.5-4.63,3.49c-1.64,0.98-3.3,1.8-4.96,2.46c-1.67,0.66-3.24,1.15-4.72,1.48
			c-0.93,3.12-2.43,5.81-4.51,8.08c-2.08,2.27-4.65,3.81-7.71,4.63c-2.24,0.6-4.18,0.55-5.82-0.16c-1.64-0.71-2.79-1.72-3.45-3.04
			s-0.74-2.74-0.25-4.27s1.69-2.82,3.61-3.86c1.58-0.82,3.17-1.49,4.76-2.01c1.58-0.52,3.17-0.97,4.76-1.35
			c0.11-1.15,0.19-2.83,0.25-5.04c0.05-2.21-0.1-4.43-0.45-6.64c-0.36-2.21-0.98-4.17-1.89-5.86
			C673.98,276.83,672.65,275.92,670.91,275.81z M660.73,316.34c0,1.2-0.06,2.73-0.16,4.59c-0.11,1.86-0.22,3.88-0.33,6.07
			c-0.11,2.19-0.18,4.47-0.21,6.85c-0.03,2.38,0.08,4.73,0.33,7.05c0.25,2.32,0.67,4.52,1.27,6.6c0.6,2.08,1.45,3.88,2.54,5.41
			c1.31,1.86,2.67,3.01,4.06,3.45c1.39,0.44,2.71,0.37,3.94-0.21s2.31-1.56,3.24-2.95c0.93-1.39,1.58-2.97,1.97-4.72
			c0.71-3.45,0.7-6.64-0.04-9.6s-1.94-5.74-3.61-8.37c-1.67-2.63-3.67-5.11-5.99-7.46C665.42,320.71,663.08,318.47,660.73,316.34z
			 M669.26,302.31c-0.71,0.44-1.11,0.97-1.19,1.6s0.03,1.2,0.33,1.72c0.3,0.52,0.76,0.92,1.39,1.19c0.63,0.27,1.33,0.25,2.09-0.08
			c1.2-0.49,2.15-1.35,2.83-2.58c0.68-1.23,1.19-2.64,1.52-4.22c-1.26,0.27-2.48,0.59-3.65,0.94
			C671.41,301.23,670.3,301.71,669.26,302.31z"/>
		<path class="st7" d="M712.17,273.27c0,0.82-0.29,1.52-0.86,2.09s-1.27,0.86-2.09,0.86s-1.52-0.29-2.09-0.86s-0.86-1.27-0.86-2.09
			s0.29-1.52,0.86-2.09s1.27-0.86,2.09-0.86s1.52,0.29,2.09,0.86S712.17,272.45,712.17,273.27z M712.17,294.44
			c0,0.82-0.29,1.52-0.86,2.09s-1.27,0.86-2.09,0.86s-1.52-0.29-2.09-0.86s-0.86-1.27-0.86-2.09s0.29-1.52,0.86-2.09
			s1.27-0.86,2.09-0.86s1.52,0.29,2.09,0.86S712.17,293.62,712.17,294.44z"/>
		<path class="st7" d="M242.14,372.77c-0.88,2.52-2.16,4.48-3.86,5.91c-1.7,1.42-3.56,2.34-5.58,2.75
			c-2.02,0.41-4.07,0.32-6.15-0.29c-2.08-0.6-3.97-1.69-5.66-3.28c-1.7-1.59-3.05-3.66-4.06-6.23c-1.01-2.57-1.44-5.6-1.27-9.11
			c0.11-2.35,0.7-4.61,1.76-6.77c1.07-2.16,2.5-4.06,4.31-5.7s3.9-2.97,6.28-3.98c2.38-1.01,4.93-1.54,7.67-1.6
			c2.68-0.05,5.09,0.34,7.22,1.19c2.13,0.85,4.01,2.02,5.62,3.53c1.61,1.5,2.95,3.25,4.02,5.25c1.07,2,1.91,4.09,2.54,6.28
			c0.63,2.19,1.03,4.42,1.19,6.69c0.16,2.27,0.11,4.42-0.16,6.44c-0.66,5.2-1.9,10.02-3.73,14.48c-1.83,4.46-4.2,8.33-7.1,11.61
			c-2.9,3.28-6.34,5.85-10.34,7.71c-3.99,1.86-8.48,2.73-13.45,2.63c-0.44-0.06-0.75-0.27-0.94-0.66c-0.19-0.38-0.27-0.81-0.25-1.27
			c0.03-0.47,0.14-0.86,0.33-1.19c0.19-0.33,0.48-0.49,0.86-0.49c3.5,0.16,6.62-0.77,9.35-2.79c2.73-2.02,5.1-4.63,7.1-7.83
			c2-3.2,3.62-6.79,4.88-10.79c1.26-3.99,2.16-7.87,2.71-11.65c0.27-1.91,0.42-4.24,0.45-6.97c0.03-2.73-0.26-5.34-0.86-7.83
			c-0.6-2.49-1.63-4.61-3.08-6.36c-1.45-1.75-3.54-2.63-6.28-2.63c-1.8,0-3.29,0.47-4.47,1.39c-1.18,0.93-2.12,2.08-2.83,3.45
			c-0.71,1.37-1.22,2.83-1.52,4.39c-0.3,1.56-0.48,2.94-0.53,4.14c-0.16,3.61,0.35,6.44,1.56,8.49c1.2,2.05,2.61,3.36,4.22,3.94
			c1.61,0.57,3.21,0.41,4.8-0.49c1.59-0.9,2.71-2.53,3.36-4.88c0.98-0.55,1.63-0.5,1.93,0.12
			C242.48,370.98,242.47,371.79,242.14,372.77z"/>
		<path class="st7" d="M285.21,372.77c-0.88,2.52-2.16,4.48-3.86,5.91c-1.7,1.42-3.56,2.34-5.58,2.75
			c-2.02,0.41-4.07,0.32-6.15-0.29c-2.08-0.6-3.97-1.69-5.66-3.28c-1.7-1.59-3.05-3.66-4.06-6.23c-1.01-2.57-1.44-5.6-1.27-9.11
			c0.11-2.35,0.7-4.61,1.76-6.77c1.07-2.16,2.5-4.06,4.31-5.7s3.9-2.97,6.28-3.98c2.38-1.01,4.93-1.54,7.67-1.6
			c2.68-0.05,5.09,0.34,7.22,1.19c2.13,0.85,4.01,2.02,5.62,3.53c1.61,1.5,2.95,3.25,4.02,5.25c1.07,2,1.91,4.09,2.54,6.28
			c0.63,2.19,1.03,4.42,1.19,6.69c0.16,2.27,0.11,4.42-0.16,6.44c-0.66,5.2-1.9,10.02-3.73,14.48c-1.83,4.46-4.2,8.33-7.1,11.61
			c-2.9,3.28-6.34,5.85-10.34,7.71c-3.99,1.86-8.48,2.73-13.45,2.63c-0.44-0.06-0.75-0.27-0.94-0.66c-0.19-0.38-0.27-0.81-0.25-1.27
			c0.03-0.47,0.14-0.86,0.33-1.19c0.19-0.33,0.48-0.49,0.86-0.49c3.5,0.16,6.62-0.77,9.35-2.79c2.73-2.02,5.1-4.63,7.1-7.83
			c2-3.2,3.62-6.79,4.88-10.79c1.26-3.99,2.16-7.87,2.71-11.65c0.27-1.91,0.42-4.24,0.45-6.97c0.03-2.73-0.26-5.34-0.86-7.83
			c-0.6-2.49-1.63-4.61-3.08-6.36c-1.45-1.75-3.54-2.63-6.28-2.63c-1.8,0-3.29,0.47-4.47,1.39c-1.18,0.93-2.12,2.08-2.83,3.45
			c-0.71,1.37-1.22,2.83-1.52,4.39c-0.3,1.56-0.48,2.94-0.53,4.14c-0.16,3.61,0.35,6.44,1.56,8.49c1.2,2.05,2.61,3.36,4.22,3.94
			c1.61,0.57,3.21,0.41,4.8-0.49c1.59-0.9,2.71-2.53,3.36-4.88c0.98-0.55,1.63-0.5,1.93,0.12
			C285.55,370.98,285.53,371.79,285.21,372.77z"/>
		<path class="st7" d="M328.27,372.77c-0.88,2.52-2.16,4.48-3.86,5.91c-1.7,1.42-3.56,2.34-5.58,2.75
			c-2.02,0.41-4.07,0.32-6.15-0.29c-2.08-0.6-3.97-1.69-5.66-3.28c-1.7-1.59-3.05-3.66-4.06-6.23c-1.01-2.57-1.44-5.6-1.27-9.11
			c0.11-2.35,0.7-4.61,1.76-6.77c1.07-2.16,2.5-4.06,4.31-5.7s3.9-2.97,6.28-3.98c2.38-1.01,4.93-1.54,7.67-1.6
			c2.68-0.05,5.09,0.34,7.22,1.19c2.13,0.85,4.01,2.02,5.62,3.53c1.61,1.5,2.95,3.25,4.02,5.25c1.07,2,1.91,4.09,2.54,6.28
			c0.63,2.19,1.03,4.42,1.19,6.69c0.16,2.27,0.11,4.42-0.16,6.44c-0.66,5.2-1.9,10.02-3.73,14.48c-1.83,4.46-4.2,8.33-7.1,11.61
			c-2.9,3.28-6.34,5.85-10.34,7.71c-3.99,1.86-8.48,2.73-13.45,2.63c-0.44-0.06-0.75-0.27-0.94-0.66c-0.19-0.38-0.27-0.81-0.25-1.27
			c0.03-0.47,0.14-0.86,0.33-1.19c0.19-0.33,0.48-0.49,0.86-0.49c3.5,0.16,6.62-0.77,9.35-2.79c2.73-2.02,5.1-4.63,7.1-7.83
			c2-3.2,3.62-6.79,4.88-10.79c1.26-3.99,2.16-7.87,2.71-11.65c0.27-1.91,0.42-4.24,0.45-6.97c0.03-2.73-0.26-5.34-0.86-7.83
			c-0.6-2.49-1.63-4.61-3.08-6.36c-1.45-1.75-3.54-2.63-6.28-2.63c-1.8,0-3.29,0.47-4.47,1.39c-1.18,0.93-2.12,2.08-2.83,3.45
			c-0.71,1.37-1.22,2.83-1.52,4.39c-0.3,1.56-0.48,2.94-0.53,4.14c-0.16,3.61,0.35,6.44,1.56,8.49c1.2,2.05,2.61,3.36,4.22,3.94
			c1.61,0.57,3.21,0.41,4.8-0.49c1.59-0.9,2.71-2.53,3.36-4.88c0.98-0.55,1.63-0.5,1.93,0.12
			C328.61,370.98,328.6,371.79,328.27,372.77z"/>
		<path class="st7" d="M352.39,344.8c3.94,0.88,7.85,1.55,11.73,2.01c3.88,0.47,7.46,0.64,10.75,0.53c3.28-0.11,6.08-0.53,8.41-1.27
			c2.32-0.74,3.87-1.87,4.63-3.4c0.98,0.71,1.74,1.59,2.26,2.63c0.52,1.04,0.79,2.12,0.82,3.24c0.03,1.12-0.16,2.19-0.57,3.2
			c-0.41,1.01-1.05,1.85-1.93,2.5c-1.59,1.2-3.51,2.11-5.78,2.71c-2.27,0.6-4.75,0.96-7.42,1.07c-2.68,0.11-5.46,0.01-8.33-0.29
			c-2.87-0.3-5.7-0.72-8.49-1.27c0.22,0.82,0.33,1.86,0.33,3.12c0,1.26-0.1,2.56-0.29,3.9c-0.19,1.34-0.47,2.68-0.82,4.02
			c-0.36,1.34-0.78,2.53-1.27,3.57c4.16-1.53,8.22-2.13,12.18-1.8c3.96,0.33,7.4,1.48,10.29,3.45c2.9,1.97,5,4.72,6.32,8.24
			c1.31,3.53,1.39,7.7,0.25,12.51c-0.88,3.66-2.5,6.74-4.88,9.23s-5.09,4.35-8.12,5.58s-6.21,1.78-9.52,1.64
			c-3.31-0.14-6.32-0.96-9.02-2.46c-2.71-1.5-4.92-3.75-6.64-6.73s-2.53-6.74-2.42-11.28c0-0.71,0.19-1.19,0.57-1.44
			c0.38-0.25,0.81-0.33,1.27-0.25c0.46,0.08,0.9,0.32,1.31,0.7c0.41,0.38,0.67,0.85,0.78,1.39c0.16,3.5,0.85,6.36,2.05,8.57
			c1.2,2.21,2.68,3.83,4.43,4.84c1.75,1.01,3.66,1.46,5.74,1.35c2.08-0.11,4.06-0.7,5.95-1.76s3.55-2.6,5-4.59
			c1.45-2,2.45-4.36,2.99-7.1c0.66-3.45,0.66-6.37,0-8.78c-0.66-2.41-1.89-4.28-3.69-5.62c-1.8-1.34-4.12-2.12-6.93-2.34
			c-2.82-0.22-6.03,0.19-9.64,1.23c-0.16,0.06-0.71,0.33-1.64,0.82c-0.93,0.49-1.87,0.94-2.83,1.35c-0.96,0.41-1.79,0.6-2.5,0.57
			c-0.71-0.03-0.96-0.56-0.74-1.6c0.44-1.31,0.93-2.82,1.48-4.51c0.55-1.69,1.07-3.51,1.56-5.46c0.49-1.94,0.9-3.96,1.23-6.07
			c0.33-2.1,0.49-4.25,0.49-6.44c-0.11-0.71-0.25-1.41-0.41-2.09c-0.16-0.68-0.25-1.39-0.25-2.13s0.08-1.53,0.25-2.38
			C351.49,346.87,351.84,345.9,352.39,344.8z"/>
		<path class="st7" d="M431.14,375.32c1.31,0.16,2.39,0.6,3.24,1.31c0.85,0.71,1.41,1.5,1.68,2.38c0.27,0.88,0.26,1.74-0.04,2.58
			c-0.3,0.85-0.89,1.49-1.76,1.93c-1.04-0.93-2.5-1.61-4.39-2.05c-1.89-0.44-3.99-0.71-6.32-0.82c-2.33-0.11-4.72-0.12-7.18-0.04
			s-4.83,0.18-7.1,0.29c-2.27,0.11-4.29,0.16-6.07,0.16c-1.78,0-3.1-0.14-3.98-0.41c-1.59-0.55-2.61-1.27-3.08-2.17
			c-0.46-0.9-0.51-1.96-0.12-3.16c0.55,0.38,1.53,0.6,2.95,0.66c1.42,0.05,3.14,0.04,5.17-0.04c2.02-0.08,4.22-0.21,6.6-0.37
			s4.77-0.3,7.18-0.41c2.41-0.11,4.76-0.16,7.05-0.16S429.33,375.1,431.14,375.32z"/>
		<path class="st7" d="M481.91,356.45c-1.97,3.01-3.83,6.32-5.58,9.93c-1.75,3.61-3.38,7.29-4.88,11.03
			c-1.5,3.75-2.86,7.41-4.06,10.99c-1.2,3.58-2.2,6.84-2.99,9.76c-0.79,2.93-1.35,5.39-1.68,7.38c-0.33,2-0.41,3.27-0.25,3.81
			c-0.77,0.77-1.83,1.26-3.2,1.48c-1.37,0.22-2.64,0.12-3.81-0.29c-1.18-0.41-2.11-1.15-2.79-2.21c-0.68-1.07-0.73-2.48-0.12-4.22
			c0.55-1.92,1.26-4.17,2.13-6.77c0.87-2.6,1.86-5.37,2.95-8.33c1.09-2.95,2.27-6.03,3.53-9.23c1.26-3.2,2.51-6.36,3.77-9.47
			c1.26-3.12,2.5-6.1,3.73-8.94c1.23-2.84,2.39-5.44,3.49-7.79c-2.68,0.66-5.43,1.24-8.24,1.76c-2.82,0.52-5.52,0.83-8.12,0.94
			c-2.6,0.11-4.99-0.03-7.18-0.41c-2.19-0.38-3.99-1.18-5.41-2.38c-0.88-0.71-1.5-1.57-1.89-2.58c-0.38-1.01-0.53-2.06-0.45-3.16
			c0.08-1.09,0.41-2.15,0.98-3.16c0.57-1.01,1.38-1.85,2.42-2.5c0.71,1.59,2.21,2.74,4.51,3.45c2.3,0.71,5.07,1.11,8.33,1.19
			c3.25,0.08,6.83-0.08,10.75-0.49c3.91-0.41,7.86-1,11.85-1.76c1.58-0.22,2.71,0.14,3.36,1.07c0.66,0.93,0.98,2.09,0.98,3.49
			s-0.22,2.8-0.66,4.22C482.95,354.67,482.46,355.74,481.91,356.45z"/>
		<path class="st7" d="M493.31,344.8c3.94,0.88,7.85,1.55,11.73,2.01c3.88,0.47,7.46,0.64,10.75,0.53c3.28-0.11,6.08-0.53,8.41-1.27
			c2.32-0.74,3.87-1.87,4.63-3.4c0.98,0.71,1.74,1.59,2.26,2.63c0.52,1.04,0.79,2.12,0.82,3.24c0.03,1.12-0.16,2.19-0.57,3.2
			c-0.41,1.01-1.05,1.85-1.93,2.5c-1.59,1.2-3.51,2.11-5.78,2.71c-2.27,0.6-4.75,0.96-7.42,1.07c-2.68,0.11-5.46,0.01-8.33-0.29
			c-2.87-0.3-5.7-0.72-8.49-1.27c0.22,0.82,0.33,1.86,0.33,3.12c0,1.26-0.1,2.56-0.29,3.9c-0.19,1.34-0.47,2.68-0.82,4.02
			c-0.36,1.34-0.78,2.53-1.27,3.57c4.16-1.53,8.22-2.13,12.18-1.8c3.96,0.33,7.4,1.48,10.29,3.45c2.9,1.97,5,4.72,6.32,8.24
			c1.31,3.53,1.39,7.7,0.25,12.51c-0.88,3.66-2.5,6.74-4.88,9.23s-5.09,4.35-8.12,5.58s-6.21,1.78-9.52,1.64
			c-3.31-0.14-6.32-0.96-9.02-2.46c-2.71-1.5-4.92-3.75-6.64-6.73s-2.53-6.74-2.42-11.28c0-0.71,0.19-1.19,0.57-1.44
			c0.38-0.25,0.81-0.33,1.27-0.25c0.46,0.08,0.9,0.32,1.31,0.7c0.41,0.38,0.67,0.85,0.78,1.39c0.16,3.5,0.85,6.36,2.05,8.57
			c1.2,2.21,2.68,3.83,4.43,4.84c1.75,1.01,3.66,1.46,5.74,1.35c2.08-0.11,4.06-0.7,5.95-1.76s3.55-2.6,5-4.59
			c1.45-2,2.45-4.36,2.99-7.1c0.66-3.45,0.66-6.37,0-8.78c-0.66-2.41-1.89-4.28-3.69-5.62c-1.8-1.34-4.12-2.12-6.93-2.34
			c-2.82-0.22-6.03,0.19-9.64,1.23c-0.16,0.06-0.71,0.33-1.64,0.82c-0.93,0.49-1.87,0.94-2.83,1.35c-0.96,0.41-1.79,0.6-2.5,0.57
			c-0.71-0.03-0.96-0.56-0.74-1.6c0.44-1.31,0.93-2.82,1.48-4.51c0.55-1.69,1.07-3.51,1.56-5.46c0.49-1.94,0.9-3.96,1.23-6.07
			c0.33-2.1,0.49-4.25,0.49-6.44c-0.11-0.71-0.25-1.41-0.41-2.09c-0.16-0.68-0.25-1.39-0.25-2.13s0.08-1.53,0.25-2.38
			C492.41,346.87,492.77,345.9,493.31,344.8z"/>
		<path class="st7" d="M572.06,375.32c1.31,0.16,2.39,0.6,3.24,1.31c0.85,0.71,1.41,1.5,1.68,2.38c0.27,0.88,0.26,1.74-0.04,2.58
			c-0.3,0.85-0.89,1.49-1.76,1.93c-1.04-0.93-2.5-1.61-4.39-2.05c-1.89-0.44-3.99-0.71-6.32-0.82c-2.33-0.11-4.72-0.12-7.18-0.04
			s-4.83,0.18-7.1,0.29c-2.27,0.11-4.29,0.16-6.07,0.16c-1.78,0-3.1-0.14-3.98-0.41c-1.59-0.55-2.61-1.27-3.08-2.17
			c-0.46-0.9-0.51-1.96-0.12-3.16c0.55,0.38,1.53,0.6,2.95,0.66c1.42,0.05,3.14,0.04,5.17-0.04c2.02-0.08,4.22-0.21,6.6-0.37
			s4.77-0.3,7.18-0.41c2.41-0.11,4.76-0.16,7.05-0.16S570.26,375.1,572.06,375.32z"/>
		<path class="st7" d="M596.51,382.13c0.87-2.46,2.16-4.42,3.86-5.86c1.69-1.45,3.55-2.38,5.58-2.79c2.02-0.41,4.07-0.31,6.15,0.29
			c2.08,0.6,3.96,1.7,5.66,3.28c1.69,1.59,3.05,3.66,4.06,6.23c1.01,2.57,1.44,5.61,1.27,9.11c-0.11,2.35-0.7,4.61-1.76,6.77
			c-1.07,2.16-2.5,4.06-4.31,5.7s-3.9,2.97-6.28,3.98c-2.38,1.01-4.94,1.54-7.67,1.6c-2.68,0.05-5.09-0.34-7.22-1.19
			c-2.13-0.85-4.01-2.02-5.62-3.53c-1.61-1.5-2.95-3.25-4.02-5.25s-1.92-4.09-2.54-6.28c-0.63-2.19-1.03-4.42-1.19-6.69
			c-0.16-2.27-0.11-4.42,0.16-6.44c0.66-5.19,1.9-10.03,3.73-14.52c1.83-4.48,4.2-8.37,7.1-11.65c2.9-3.28,6.34-5.84,10.34-7.67
			c3.99-1.83,8.48-2.72,13.45-2.67c0.44,0.06,0.75,0.27,0.94,0.66c0.19,0.38,0.27,0.81,0.25,1.27c-0.03,0.47-0.14,0.86-0.33,1.19
			c-0.19,0.33-0.48,0.49-0.86,0.49c-3.5-0.16-6.62,0.77-9.35,2.79c-2.74,2.02-5.1,4.65-7.1,7.88c-2,3.23-3.62,6.84-4.88,10.83
			c-1.26,3.99-2.16,7.88-2.71,11.65c-0.27,1.92-0.42,4.24-0.45,6.97c-0.03,2.74,0.26,5.35,0.86,7.83c0.6,2.49,1.63,4.61,3.08,6.36
			c1.45,1.75,3.54,2.63,6.28,2.63c1.8,0,3.29-0.47,4.47-1.39c1.17-0.93,2.12-2.08,2.83-3.45c0.71-1.37,1.22-2.82,1.52-4.35
			c0.3-1.53,0.48-2.92,0.53-4.18c0.16-3.61-0.36-6.44-1.56-8.49c-1.2-2.05-2.61-3.36-4.22-3.94c-1.61-0.57-3.21-0.41-4.8,0.49
			c-1.59,0.9-2.71,2.53-3.36,4.88c-0.98,0.55-1.63,0.51-1.93-0.12C596.16,383.92,596.18,383.11,596.51,382.13z"/>
		<path class="st7" d="M663.36,357.6c-0.77,3.39-1.41,6.96-1.93,10.71c-0.52,3.75-0.93,7.45-1.23,11.12
			c-0.3,3.66-0.51,7.18-0.62,10.54c-0.11,3.36-0.15,6.39-0.12,9.06c0.03,2.68,0.14,4.89,0.33,6.64c0.19,1.75,0.42,2.84,0.7,3.28
			c-0.55,0.98-1.44,1.61-2.67,1.89c-1.23,0.27-2.48,0.22-3.73-0.16c-1.26-0.38-2.35-1.14-3.28-2.26c-0.93-1.12-1.34-2.58-1.23-4.39
			c0-2.79,0.11-5.95,0.33-9.47c0.22-3.53,0.55-7.42,0.98-11.69c-1.53-0.11-3.2-0.14-5-0.08c-1.8,0.06-3.61,0.16-5.41,0.33
			s-3.56,0.37-5.25,0.62c-1.7,0.25-3.2,0.53-4.51,0.86c-0.38,0.06-1.03,0.04-1.93-0.04s-1.75-0.26-2.54-0.53
			c-0.79-0.27-1.39-0.64-1.8-1.11c-0.41-0.46-0.34-1.08,0.21-1.85c2.35-2.3,4.55-4.85,6.6-7.67c2.05-2.82,3.98-5.78,5.78-8.9
			s3.51-6.3,5.13-9.56c1.61-3.25,3.21-6.44,4.8-9.56c0.33-0.49,0.9-0.81,1.72-0.94c0.82-0.14,1.64-0.14,2.46,0
			c0.82,0.14,1.49,0.4,2.01,0.78c0.52,0.38,0.67,0.9,0.45,1.56c-0.33,1.53-0.88,3.65-1.64,6.36c-0.77,2.71-1.72,5.58-2.87,8.61
			s-2.5,6.04-4.06,9.02c-1.56,2.98-3.3,5.51-5.21,7.59c1.86-0.11,3.77-0.05,5.74,0.16c1.97,0.22,3.88,0.44,5.74,0.66
			c0.16-1.48,0.34-3.1,0.53-4.88c0.19-1.78,0.41-3.61,0.66-5.5s0.48-3.77,0.7-5.66c0.22-1.89,0.46-3.68,0.74-5.37
			c0.66-1.8,1.46-2.99,2.42-3.57c0.96-0.57,1.9-0.77,2.83-0.57c0.93,0.19,1.78,0.67,2.54,1.44
			C662.48,355.82,663.03,356.67,663.36,357.6z"/>
		<path class="st7" d="M703.23,375.32c1.31,0.16,2.39,0.6,3.24,1.31c0.85,0.71,1.41,1.5,1.68,2.38c0.27,0.88,0.26,1.74-0.04,2.58
			c-0.3,0.85-0.89,1.49-1.76,1.93c-1.04-0.93-2.5-1.61-4.39-2.05c-1.89-0.44-3.99-0.71-6.32-0.82c-2.33-0.11-4.72-0.12-7.18-0.04
			s-4.83,0.18-7.1,0.29c-2.27,0.11-4.29,0.16-6.07,0.16c-1.78,0-3.1-0.14-3.98-0.41c-1.59-0.55-2.61-1.27-3.08-2.17
			c-0.46-0.9-0.51-1.96-0.12-3.16c0.55,0.38,1.53,0.6,2.95,0.66c1.42,0.05,3.14,0.04,5.17-0.04c2.02-0.08,4.22-0.21,6.6-0.37
			s4.77-0.3,7.18-0.41c2.41-0.11,4.76-0.16,7.05-0.16S701.42,375.1,703.23,375.32z"/>
		<path class="st7" d="M723.73,369.99c-1.37,0.82-2.57,1.08-3.61,0.78c-1.04-0.3-1.9-0.93-2.58-1.89c-0.68-0.96-1.16-2.12-1.44-3.49
			c-0.27-1.37-0.33-2.71-0.16-4.02c0.38-3.17,1.44-5.96,3.16-8.37c1.72-2.41,3.79-4.35,6.19-5.82c2.41-1.48,5.02-2.46,7.83-2.95
			c2.82-0.49,5.51-0.42,8.08,0.21c2.57,0.63,4.85,1.86,6.85,3.69c2,1.83,3.43,4.31,4.31,7.42c0.55,2.08,0.62,4.13,0.21,6.15
			c-0.41,2.02-1.15,4.02-2.21,5.99s-2.35,3.88-3.86,5.74c-1.5,1.86-3.08,3.65-4.72,5.37s-3.25,3.36-4.84,4.92
			c-1.59,1.56-2.98,3.02-4.18,4.39c-2.35,2.68-4.33,5.43-5.95,8.24c-1.61,2.82-3.05,5.84-4.31,9.06c1.37-0.38,2.69-0.85,3.98-1.39
			c1.28-0.55,2.56-1.07,3.81-1.56c1.26-0.49,2.51-0.92,3.77-1.27c1.26-0.35,2.6-0.53,4.02-0.53c1.37,0.06,2.79,0.3,4.27,0.74
			c1.48,0.44,2.94,0.81,4.39,1.11c1.45,0.3,2.86,0.37,4.22,0.21c1.37-0.16,2.68-0.82,3.94-1.97c0.88,0.06,1.52,0.52,1.93,1.39
			s0.57,1.85,0.49,2.91s-0.41,2.08-0.98,3.04c-0.57,0.96-1.41,1.54-2.5,1.76c-1.26,0.27-2.57,0.37-3.94,0.29
			c-1.37-0.08-2.76-0.23-4.18-0.45c-1.42-0.22-2.86-0.48-4.31-0.78c-1.45-0.3-2.83-0.59-4.14-0.86c-2.79-0.44-5.74-0.4-8.86,0.12
			c-3.12,0.52-6.02,1.27-8.7,2.26c-0.27,0.11-0.75,0.19-1.44,0.25c-0.68,0.05-1.35,0.04-2.01-0.04s-1.22-0.3-1.68-0.66
			c-0.46-0.36-0.62-0.92-0.45-1.68c0.49-1.97,1.12-4.07,1.89-6.32c0.77-2.24,1.68-4.47,2.75-6.69s2.24-4.37,3.53-6.48
			c1.28-2.1,2.67-4.03,4.14-5.78c0.87-1.04,1.95-2.13,3.24-3.28c1.28-1.15,2.6-2.37,3.94-3.65c1.34-1.28,2.63-2.65,3.86-4.1
			c1.23-1.45,2.26-3.01,3.08-4.68c0.82-1.67,1.37-3.45,1.64-5.33c0.27-1.89,0.11-3.9-0.49-6.03c-0.6-2.08-1.61-3.58-3.04-4.51
			c-1.42-0.93-2.98-1.38-4.68-1.35c-1.7,0.03-3.39,0.51-5.09,1.44c-1.7,0.93-3.12,2.26-4.27,3.98s-1.87,3.81-2.17,6.28
			C722.16,364.24,722.58,366.98,723.73,369.99z"/>
		<path class="st7" d="M774.59,364.98c-0.71,1.37-1.33,3.35-1.85,5.95c-0.52,2.6-0.88,5.44-1.07,8.53
			c-0.19,3.09-0.18,6.23,0.04,9.43c0.22,3.2,0.7,6.11,1.44,8.74s1.78,4.77,3.12,6.44c1.34,1.67,3.05,2.5,5.13,2.5
			c2.3,0,4.36-1.01,6.19-3.04c1.83-2.02,3.39-4.62,4.68-7.79c1.28-3.17,2.26-6.69,2.91-10.54s0.98-7.64,0.98-11.36
			c0-2.13-0.12-4.65-0.37-7.55c-0.25-2.9-0.79-5.69-1.64-8.37c-0.85-2.68-2.11-4.95-3.77-6.81c-1.67-1.86-3.9-2.79-6.69-2.79
			c-1.2,0-2.33,0.25-3.36,0.74c-1.04,0.49-1.98,1.12-2.83,1.89c-0.85,0.77-1.56,1.65-2.13,2.67c-0.57,1.01-0.97,2.04-1.19,3.08
			c-0.93,0.6-1.74,0.85-2.42,0.74c-0.68-0.11-1.18-0.46-1.48-1.07c-0.3-0.6-0.36-1.37-0.16-2.3c0.19-0.93,0.7-1.94,1.52-3.04
			c1.58-1.97,3.42-3.6,5.5-4.88c2.08-1.28,4.29-1.93,6.64-1.93c2.46,0,4.63,0.48,6.52,1.44c1.89,0.96,3.55,2.23,5,3.81
			c1.45,1.59,2.67,3.4,3.65,5.46s1.78,4.2,2.38,6.44c0.6,2.24,1.04,4.48,1.31,6.73c0.27,2.24,0.41,4.32,0.41,6.23
			c0,4.1-0.49,8.28-1.48,12.55c-0.98,4.27-2.39,8.14-4.22,11.61c-1.83,3.47-4.06,6.34-6.69,8.61c-2.63,2.27-5.58,3.49-8.86,3.65
			c-3.99,0.22-7.36-0.59-10.09-2.42c-2.74-1.83-4.92-4.25-6.56-7.26s-2.79-6.4-3.45-10.17s-0.89-7.52-0.7-11.24
			c0.19-3.72,0.75-7.18,1.68-10.38c0.93-3.2,2.16-5.73,3.69-7.59c0.87-1.2,1.78-1.86,2.71-1.97c0.93-0.11,1.78,0.08,2.54,0.57
			c0.76,0.49,1.42,1.19,1.97,2.09C774.15,363.3,774.48,364.16,774.59,364.98z"/>
	</g>
</g>
</svg>
